<svg width="270" height="274" viewBox="0 0 270 274" fill="none" xmlns="http://www.w3.org/2000/svg">
<path fill-rule="evenodd" clip-rule="evenodd" d="M122.664 30.5764L120.324 24.7439L118.019 30.59L25.3558 265.527L30.0071 267.362L120.364 38.2706L192.389 217.786L195.961 213.263L122.664 30.5764ZM201.694 227.551L198.121 232.075L212.284 267.375L216.925 265.514L201.694 227.551Z" fill="#4CE5FF"/>
<path fill-rule="evenodd" clip-rule="evenodd" d="M253.817 129.016C253.817 197.494 198.131 253.033 129.408 253.033C97.3106 253.033 68.0571 240.917 45.9928 221.027L42.8877 224.959C65.8119 245.52 96.1445 258.033 129.408 258.033C200.878 258.033 258.817 200.27 258.817 129.016C258.817 57.7626 200.878 0 129.408 0C57.9381 0 0 57.7626 0 129.016C0 162.278 12.6251 192.6 33.3583 215.478L36.5023 211.497C16.9062 189.578 5 160.681 5 129.016C5 60.5383 60.6852 5 129.408 5C198.131 5 253.817 60.5383 253.817 129.016Z" fill="#4CE5FF"/>
<path d="M120.894 38.2271L129.866 61.3571L46.0934 273.438L32.0328 267.792L120.894 38.2271Z" fill="#4CE5FF"/>
<path fill-rule="evenodd" clip-rule="evenodd" d="M133.848 30.5764L131.508 24.7439L129.202 30.59L36.5393 265.527L41.1906 267.362L131.548 38.2706L203.572 217.786L207.144 213.263L133.848 30.5764ZM212.877 227.551L209.305 232.075L223.468 267.375L228.108 265.514L212.877 227.551Z" fill="#B34FFF"/>
<path fill-rule="evenodd" clip-rule="evenodd" d="M265 129.016C265 197.494 209.315 253.033 140.592 253.033C108.494 253.033 79.2405 240.917 57.1763 221.027L54.0711 224.959C76.9954 245.52 107.328 258.033 140.592 258.033C212.062 258.033 270 200.27 270 129.016C270 57.7626 212.062 0 140.592 0C69.1215 0 11.1835 57.7626 11.1835 129.016C11.1835 162.278 23.8086 192.6 44.5418 215.478L47.6858 211.497C28.0897 189.578 16.1835 160.681 16.1835 129.016C16.1835 60.5383 71.8686 5 140.592 5C209.315 5 265 60.5383 265 129.016Z" fill="#B34FFF"/>
<path d="M132.078 38.2271L141.05 61.3571L57.2768 273.438L43.2163 267.792L132.078 38.2271Z" fill="#B34FFF"/>
</svg>
