<svg width="176" height="189" viewBox="0 0 176 189" fill="none" xmlns="http://www.w3.org/2000/svg">
<g id="Slide 16:9 - 2">
<g id="Union">
<path fill-rule="evenodd" clip-rule="evenodd" d="M173.883 87.6887C173.961 87.4837 174 87.2772 174 87.0695C174 86.8618 173.961 86.6554 173.883 86.4503H173.998C173.665 39.2005 135.29 1 88.0002 1C40.7101 1 2.33505 39.2005 2.00242 86.4503H2.11706C2.03935 86.6554 2 86.8618 2 87.0695C2 87.2772 2.03935 87.4837 2.11706 87.6887H5.62439C5.43947 87.5841 5.27211 87.4814 5.12189 87.381C4.94 87.2594 4.80332 87.1553 4.70132 87.0695C4.80332 86.9838 4.94 86.8797 5.12189 86.7581C5.27211 86.6577 5.43947 86.555 5.62439 86.4503H5.71474L5.71514 86.3996C6.59459 85.9138 7.84932 85.3871 9.51934 84.8469C13.6656 83.5059 19.7952 82.2618 27.524 81.2045C38.2824 79.7327 51.9423 78.6485 67.257 78.1274L63.3926 90.6542C27.8871 92.1021 2 96.6027 2 101.93C2 102.138 2.03934 102.345 2.11707 102.55H2.00193C2.33457 149.8 40.7097 188 87.9998 188C135.29 188 173.665 149.8 173.998 102.55H173.883C173.961 102.345 174 102.138 174 101.93C174 96.6765 148.825 92.227 114.077 90.7161L110.196 78.1787C124.922 78.7177 138.059 79.7794 148.476 81.2045C156.205 82.2618 162.334 83.5059 166.481 84.8469C168.151 85.3872 169.406 85.914 170.285 86.3999L170.286 86.4503H170.376C170.561 86.555 170.728 86.6577 170.878 86.7581C171.06 86.8797 171.197 86.9838 171.299 87.0695C171.197 87.1553 171.06 87.2594 170.878 87.381C170.728 87.4814 170.561 87.5841 170.376 87.6887H173.883ZM106.274 78.0487L110.147 90.5594C103.081 90.3025 95.6574 90.1656 88 90.1656C80.8701 90.1656 73.9428 90.2843 67.318 90.508L71.1743 78.0074C76.6119 77.8593 82.2381 77.7815 88 77.7815C94.2752 77.7815 100.389 77.8737 106.274 78.0487ZM109.42 75.6725C138.398 76.6887 161.477 79.7187 170.217 83.6077C168.404 39.7303 132.288 4.71523 88.0002 4.71523C43.7128 4.71523 7.59688 39.7301 5.78387 83.6075C14.669 79.654 38.3736 76.5882 68.0294 75.6235L86.7916 14.8033L87.4014 14.9588L90.3883 14.1941L109.42 75.6725ZM71.9449 75.5093L88.6873 21.2369L105.5 75.5484C99.8499 75.3886 93.9966 75.3046 88 75.3046C82.5131 75.3046 77.1463 75.3749 71.9449 75.5093ZM170.285 102.55H170.376C170.561 102.445 170.728 102.342 170.878 102.242C171.06 102.12 171.197 102.016 171.299 101.93C171.197 101.845 171.06 101.741 170.878 101.619C170.011 101.039 168.571 100.384 166.481 99.7078C162.334 98.3668 156.205 97.1227 148.476 96.0654C139.171 94.7925 127.695 93.8094 114.855 93.2299L120.16 110.365C130.862 109.771 140.472 108.89 148.476 107.796C156.205 106.738 162.334 105.494 166.481 104.153C168.151 103.613 169.405 103.086 170.285 102.6L170.285 102.55ZM87.9998 184.285C132.287 184.285 168.403 149.27 170.216 105.392C162.667 108.752 144.42 111.47 120.914 112.803L134.362 156.244L130.766 157.165L117.096 113.005C108.008 113.452 98.2121 113.695 88 113.695C78.3297 113.695 69.0322 113.477 60.3566 113.074L45.8882 159.975L42.2908 159.058L56.5353 112.883C32.3308 111.581 13.4867 108.82 5.78338 105.392C7.5963 149.27 43.7122 184.285 87.9998 184.285ZM9.51934 104.153C7.84903 103.613 6.59414 103.086 5.71466 102.6L5.71428 102.55H5.6244C5.43947 102.445 5.2721 102.342 5.12189 102.242C4.94 102.12 4.8033 102.016 4.70132 101.93C4.8033 101.845 4.94 101.741 5.12189 101.619C5.98943 101.039 7.4291 100.384 9.51934 99.7078C13.6656 98.3668 19.7952 97.1227 27.524 96.0654C37.1836 94.744 49.1825 93.7349 62.618 93.1654L57.2881 110.443C46.0038 109.85 35.8872 108.94 27.524 107.796C19.7952 106.738 13.6656 105.494 9.51934 104.153ZM61.1108 110.63L66.5453 93.013C73.3971 92.7712 80.5863 92.6424 88 92.6424C95.9454 92.6424 103.633 92.7903 110.924 93.0667L116.339 110.562C107.478 110.987 97.9409 111.219 88 111.219C78.5992 111.219 69.5595 111.011 61.1108 110.63ZM4.42426 102.214C4.42114 102.219 4.4201 102.222 4.4201 102.222L4.42159 102.219L4.42426 102.214Z" fill="black"/>
<path d="M171.58 102.222C171.58 102.222 171.578 102.219 171.576 102.214M171.58 101.639C171.58 101.639 171.579 101.642 171.576 101.647M4.42433 101.647C4.4212 101.642 4.4201 101.639 4.4201 101.639M174 87.0695C174 87.2772 173.961 87.4837 173.883 87.6887H170.376C170.561 87.5841 170.728 87.4814 170.878 87.381C171.06 87.2594 171.197 87.1553 171.299 87.0695C171.197 86.9838 171.06 86.8797 170.878 86.7581C170.728 86.6577 170.561 86.555 170.376 86.4503H170.286L170.285 86.3999C169.406 85.914 168.151 85.3872 166.481 84.8469C162.334 83.5059 156.205 82.2618 148.476 81.2045C138.059 79.7794 124.922 78.7177 110.196 78.1787L114.077 90.7161C148.825 92.227 174 96.6765 174 101.93C174 102.138 173.961 102.345 173.883 102.55H173.998C173.665 149.8 135.29 188 87.9998 188C40.7097 188 2.33457 149.8 2.00193 102.55H2.11707C2.03934 102.345 2 102.138 2 101.93C2 96.6027 27.8871 92.1021 63.3926 90.6542L67.257 78.1274C51.9423 78.6485 38.2824 79.7327 27.524 81.2045C19.7952 82.2618 13.6656 83.5059 9.51934 84.8469C7.84932 85.3871 6.59459 85.9138 5.71514 86.3996L5.71474 86.4503H5.62439C5.43947 86.555 5.27211 86.6577 5.12189 86.7581C4.94 86.8797 4.80332 86.9838 4.70132 87.0695C4.80332 87.1553 4.94 87.2594 5.12189 87.381C5.27211 87.4814 5.43947 87.5841 5.62439 87.6887H2.11706C2.03935 87.4837 2 87.2772 2 87.0695C2 86.8618 2.03935 86.6554 2.11706 86.4503H2.00242C2.33505 39.2005 40.7101 1 88.0002 1C135.29 1 173.665 39.2005 173.998 86.4503H173.883C173.961 86.6554 174 86.8618 174 87.0695ZM110.147 90.5594L106.274 78.0487C100.389 77.8738 94.2752 77.7815 88 77.7815C82.2381 77.7815 76.6119 77.8593 71.1743 78.0074L67.318 90.508C73.9428 90.2843 80.8701 90.1656 88 90.1656C95.6574 90.1656 103.081 90.3025 110.147 90.5594ZM109.42 75.6725C138.398 76.6887 161.477 79.7187 170.217 83.6077C168.404 39.7303 132.288 4.71523 88.0002 4.71523C43.7128 4.71523 7.59688 39.7301 5.78387 83.6075C14.669 79.654 38.3736 76.5882 68.0294 75.6235L86.7916 14.8033L87.4014 14.9588L90.3883 14.1941L109.42 75.6725ZM88.6873 21.2369L71.9449 75.5093C77.1463 75.3749 82.5131 75.3046 88 75.3046C93.9966 75.3046 99.8499 75.3886 105.5 75.5484L88.6873 21.2369ZM170.376 102.55H170.285L170.285 102.6C169.405 103.086 168.151 103.613 166.481 104.153C162.334 105.494 156.205 106.738 148.476 107.796C140.472 108.89 130.862 109.771 120.16 110.365L114.855 93.2299C127.695 93.8094 139.171 94.7925 148.476 96.0654C156.205 97.1227 162.334 98.3668 166.481 99.7078C168.571 100.384 170.011 101.039 170.878 101.619C171.06 101.741 171.197 101.845 171.299 101.93C171.197 102.016 171.06 102.12 170.878 102.242C170.728 102.342 170.561 102.445 170.376 102.55ZM170.216 105.392C168.403 149.27 132.287 184.285 87.9998 184.285C43.7122 184.285 7.5963 149.27 5.78338 105.392C13.4867 108.82 32.3308 111.581 56.5353 112.883L42.2908 159.058L45.8882 159.975L60.3566 113.074C69.0322 113.477 78.3297 113.695 88 113.695C98.2121 113.695 108.008 113.452 117.096 113.005L130.766 157.165L134.362 156.244L120.914 112.803C144.42 111.47 162.667 108.752 170.216 105.392ZM5.71466 102.6C6.59414 103.086 7.84903 103.613 9.51934 104.153C13.6656 105.494 19.7952 106.738 27.524 107.796C35.8872 108.94 46.0038 109.85 57.2881 110.443L62.618 93.1654C49.1825 93.7349 37.1836 94.744 27.524 96.0654C19.7952 97.1227 13.6656 98.3668 9.51934 99.7078C7.4291 100.384 5.98943 101.039 5.12189 101.619C4.94 101.741 4.8033 101.845 4.70132 101.93C4.8033 102.016 4.94 102.12 5.12189 102.242C5.2721 102.342 5.43947 102.445 5.6244 102.55H5.71428L5.71466 102.6ZM66.5453 93.013L61.1108 110.63C69.5595 111.011 78.5992 111.219 88 111.219C97.9409 111.219 107.478 110.987 116.339 110.562L110.924 93.0667C103.633 92.7903 95.9454 92.6424 88 92.6424C80.5863 92.6424 73.3971 92.7712 66.5453 93.013ZM4.4201 102.222C4.4201 102.222 4.42114 102.219 4.42426 102.214L4.42159 102.219L4.4201 102.222Z" stroke="black" stroke-width="2"/>
</g>
</g>
</svg>
